<svg id="Layer_1" data-name="Layer 1" xmlns="http://www.w3.org/2000/svg" viewBox="0 0 27 27"><defs><style>.cls-1{fill:#44d62c;}</style></defs><title>razer-nari-Cooling-Gel-Infused-Cushions-icon</title><path class="cls-1" d="M13.58,26.71A13.13,13.13,0,1,1,26.71,13.59,13.14,13.14,0,0,1,13.58,26.71Zm0-25.26A12.14,12.14,0,1,0,25.72,13.59,12.15,12.15,0,0,0,13.58,1.45Z"/><path class="cls-1" d="M21.58,9a.5.5,0,0,0-.69-.19l-1.75,1v-2a.5.5,0,0,0-.51-.51.51.51,0,0,0-.51.51v2.58l-4,2.3V8.13l2.23-1.3a.5.5,0,1,0-.5-.87L14.16,7V5a.51.51,0,0,0-.51-.51.51.51,0,0,0-.51.51V7L11.41,6a.5.5,0,0,0-.69.18.51.51,0,0,0,.18.69l2.24,1.3v4.6l-4-2.3V7.85a.51.51,0,1,0-1,0v2l-1.73-1A.5.5,0,0,0,5.74,9a.51.51,0,0,0,.18.69l1.73,1-1.73,1a.51.51,0,0,0-.18.69.51.51,0,0,0,.45.27.48.48,0,0,0,.24-.06l2.24-1.3,4,2.29-4,2.3L6.43,14.6a.5.5,0,1,0-.51.87l1.73,1-1.73,1a.5.5,0,0,0-.18.69.52.52,0,0,0,.45.26.48.48,0,0,0,.24-.06l1.73-1v2a.51.51,0,1,0,1,0V16.78l4-2.3v4.59l-2.24,1.3a.52.52,0,0,0-.18.7.52.52,0,0,0,.45.26.48.48,0,0,0,.24-.06l1.73-1v2a.5.5,0,0,0,.51.5.5.5,0,0,0,.51-.5v-2l1.73,1a.53.53,0,0,0,.24.06.5.5,0,0,0,.45-.26.51.51,0,0,0-.19-.7l-2.23-1.3V14.48l4,2.3v2.58a.51.51,0,0,0,.51.51.51.51,0,0,0,.51-.51v-2l1.73,1a.53.53,0,0,0,.24.06.5.5,0,0,0,.45-.26.5.5,0,0,0-.18-.69l-1.73-1,1.73-1a.5.5,0,0,0-.51-.87l-2.24,1.3-4-2.3,4-2.29,2.24,1.3a.53.53,0,0,0,.24.06.49.49,0,0,0,.45-.27.51.51,0,0,0-.18-.69l-1.73-1,1.73-1A.49.49,0,0,0,21.58,9Z"/></svg>