<svg id="Layer_1" data-name="Layer 1" xmlns="http://www.w3.org/2000/svg" viewBox="0 0 27 27"><defs><style>.cls-1{fill:#44d62c;}</style></defs><title>razer-nari-Swiveling-Earcups-icon</title><path class="cls-1" d="M13.5.46A13.13,13.13,0,1,0,26.63,13.59,13.14,13.14,0,0,0,13.5.46Zm0,25.26A12.14,12.14,0,1,1,25.64,13.59,12.15,12.15,0,0,1,13.5,25.72Z"/><path class="cls-1" d="M14.06,4.68a8.62,8.62,0,0,0-8.61,8.61,9.33,9.33,0,0,0,.11,1.4h0a.45.45,0,0,0,.12.27c.16.17,1.16,1.2,2.08,2a1.28,1.28,0,0,0-.09.48,1.51,1.51,0,1,0,.69-1.27c-.67-.6-1.42-1.35-1.84-1.79a8,8,0,0,1-.09-1.1,7.63,7.63,0,0,1,15.25,0c0,.23,0,.45,0,.67a4,4,0,0,0-.69-.25,4.51,4.51,0,0,0-1.08-.14c-2.43,0-4.33,3.66-4.33,4.33A4.34,4.34,0,0,0,17,21.13a.5.5,0,0,0,.33.12.45.45,0,0,0,.2,0,8.49,8.49,0,0,0,2.19-1.47l0,0A8.61,8.61,0,0,0,14.06,4.68Zm3.36,15.48a3.56,3.56,0,0,1-.43-.59,3.27,3.27,0,0,1-.45-1.64c.07-.45,1.63-3.37,3.34-3.37a3.59,3.59,0,0,1,.84.11,3.09,3.09,0,0,1,.66.25A7.54,7.54,0,0,1,17.42,20.16Z"/><path class="cls-1" d="M10,13.59a4,4,0,0,0-2,.12.51.51,0,0,0-.32.63.5.5,0,0,0,.63.31,2.94,2.94,0,0,1,3.37,1.17A2.88,2.88,0,0,1,12.06,18a2.93,2.93,0,0,1-1.25,1.87,2.94,2.94,0,0,1-4.51-3,.49.49,0,0,0-.39-.58.48.48,0,0,0-.58.39A3.94,3.94,0,0,0,8.4,21.3a4.13,4.13,0,0,0,.78.08A3.93,3.93,0,0,0,10,13.59Z"/></svg>