<svg id="Layer_1" data-name="Layer 1" xmlns="http://www.w3.org/2000/svg" viewBox="0 0 27 27"><defs><style>.cls-1{fill:#44d62c;}</style></defs><title>razer-nari-35-mm-Wired-Mode-icon</title><path class="cls-1" d="M16.13,26.24a.49.49,0,0,1-.49-.5V19.61l-4.25,0,0,6.16a.5.5,0,1,1-1,0V19.61a1,1,0,0,1,1-1h4.22a1,1,0,0,1,1,1v6.13A.5.5,0,0,1,16.13,26.24Z"/><path class="cls-1" d="M15,19.58H12V7.89a1.49,1.49,0,0,1,3,0Zm-2-1h1V7.89a.5.5,0,0,0-1,0Z"/><rect class="cls-1" x="12.51" y="9.7" width="1.98" height="0.99"/><rect class="cls-1" x="12.51" y="12.3" width="1.98" height="0.99"/><rect class="cls-1" x="12.51" y="14.9" width="1.98" height="0.99"/><path class="cls-1" d="M13.5,26.63A13.14,13.14,0,1,1,26.63,13.5,13.14,13.14,0,0,1,13.5,26.63Zm0-25.28A12.15,12.15,0,1,0,25.64,13.5,12.15,12.15,0,0,0,13.5,1.35Z"/></svg>