<svg xmlns="http://www.w3.org/2000/svg" viewBox="0 0 78.17 47"><defs><style>.cls-1{fill:#44d62c;}.cls-2{fill:#fff;}</style></defs><title>razer-nari-logo</title><g id="Layer_1" data-name="Layer 1"><polygon class="cls-1" points="33.22 14.65 29.95 14.65 32.81 9.69 33.22 8.99 32.41 8.99 28.74 8.99 28.74 9.69 32.01 9.69 29.14 14.65 28.74 15.35 29.55 15.35 32.81 15.35 33.22 14.65"/><polygon class="cls-1" points="42.09 8.99 37.64 8.99 37.64 9.69 41.69 9.69 42.09 8.99"/><polygon class="cls-1" points="42.09 11.82 37.64 11.82 37.64 12.52 41.69 12.52 42.09 11.82"/><polygon class="cls-1" points="42.09 14.65 37.64 14.65 37.64 15.35 41.69 15.35 42.09 14.65"/><path class="cls-1" d="M51,11v-.4A1.57,1.57,0,0,0,49.43,9H46.54v6.36h.7V12.52h1.31l1.64,2.83H51l-1.63-2.83h.07A1.56,1.56,0,0,0,51,11ZM47.24,9.69h2.19a.86.86,0,0,1,.86.87V11a.85.85,0,0,1-.86.86H47.24Z"/><path class="cls-1" d="M15.38,11v-.4A1.57,1.57,0,0,0,13.82,9H10.93v6.36h.7V12.52h1.31l1.64,2.83h.8l-1.63-2.83h.07A1.56,1.56,0,0,0,15.38,11ZM11.63,9.69h2.19a.87.87,0,0,1,.87.87V11a.86.86,0,0,1-.87.86H11.63Z"/><polygon class="cls-1" points="20.24 15.35 22.05 10.86 23.86 15.35 24.62 15.35 22.43 9.93 22.05 8.99 21.67 9.93 19.48 15.35 20.24 15.35"/><polygon class="cls-1" points="51.41 9.26 51.41 9.13 52.36 9.13 52.36 9.26 51.96 9.26 51.96 10.44 51.81 10.44 51.81 9.26 51.41 9.26"/><polygon class="cls-1" points="52.73 10.44 52.73 9.13 52.99 9.13 53.36 10.24 53.73 9.13 53.99 9.13 53.99 10.44 53.85 10.44 53.85 9.29 53.82 9.29 53.44 10.39 53.28 10.39 52.9 9.29 52.87 9.29 52.87 10.44 52.73 10.44"/><path class="cls-2" d="M11.08,20.13h3.09L21.52,36.3h.58V20.13h1.54V37.69h-3l-7.4-16.15h-.56V37.69H11.08Z"/><path class="cls-2" d="M33.53,20.13h3.66l5,17.56H40.68l-1.42-4.85H31.43L30,37.69H28.47ZM31.81,31.45h7.07L36,21.49H34.66Z"/><path class="cls-2" d="M48.6,30.76v6.93H47V20.13h6.44c3.61,0,5.46,1.56,5.46,5.2,0,2.65-1,4.5-3.39,5.13l3.62,7.23H57.42L54,30.76Zm4.88-9.24H48.6v7.85h4.88c2.86,0,3.84-1.66,3.84-4C57.32,22.73,56.11,21.52,53.48,21.52Z"/><path class="cls-2" d="M64.31,20.13h1.56V37.69H64.31Z"/></g></svg>