<svg id="Layer_1" data-name="Layer 1" xmlns="http://www.w3.org/2000/svg" viewBox="0 0 27 27"><defs><style>.cls-1{fill:#44d62c;}</style></defs><title>razer-nari-Wireless-Audio-icon</title><path class="cls-1" d="M4.84,23.58a13.25,13.25,0,1,1,17.54,0l-.66-.75a12.25,12.25,0,1,0-16.22,0Z"/><path class="cls-1" d="M8.45,25.84a.45.45,0,0,1-.2,0,13.12,13.12,0,0,1-7.52-10,.5.5,0,0,1,.23-.5,6.48,6.48,0,0,1,1.85-.8,6.54,6.54,0,0,1,1.64-.22C8,14.33,11,19.88,11,20.86a6.42,6.42,0,0,1-.88,3.25,6.14,6.14,0,0,1-1.3,1.61A.46.46,0,0,1,8.45,25.84ZM1.78,16a12.11,12.11,0,0,0,6.58,8.72,5.38,5.38,0,0,0,.87-1.14A5.56,5.56,0,0,0,10,20.86c-.07-.68-2.6-5.53-5.52-5.53a5.41,5.41,0,0,0-1.39.18A5.53,5.53,0,0,0,1.77,16Z"/><path class="cls-1" d="M18.87,25.84a.52.52,0,0,1-.34-.12,6.56,6.56,0,0,1-2.18-4.87c0-1,2.95-6.52,6.52-6.52a6.41,6.41,0,0,1,1.64.21,6.69,6.69,0,0,1,1.86.81.51.51,0,0,1,.22.5,13.13,13.13,0,0,1-7.51,10A.52.52,0,0,1,18.87,25.84Zm4-10.51c-2.92,0-5.44,4.85-5.52,5.54a5.49,5.49,0,0,0,.74,2.74A5.64,5.64,0,0,0,19,24.75,12.15,12.15,0,0,0,25.55,16,5.69,5.69,0,0,0,22.87,15.33Z"/><path class="cls-1" d="M6.39,6.39l-.71-.7a11,11,0,0,1,15.6-.18l.09.09-.7.71a10,10,0,0,0-14.19,0Z"/><path class="cls-1" d="M9.61,23C5.9,16.66,2.8,15.5,2.77,15.49l.33-.94c.14,0,3.45,1.22,7.37,7.93Z"/><path class="cls-1" d="M17.76,23l-.86-.51c3.92-6.71,7.24-7.89,7.37-7.93l.32.94L24.43,15l.17.47S21.47,16.66,17.76,23Z"/><path class="cls-1" d="M19.24,8.54A.44.44,0,0,1,19,8.45,9.79,9.79,0,0,0,8.34,8.37a.5.5,0,1,1-.54-.84h0a10.78,10.78,0,0,1,11.72.09.5.5,0,0,1,.14.69A.5.5,0,0,1,19.24,8.54Z"/><path class="cls-1" d="M17,11.3a.54.54,0,0,1-.28-.08,5.57,5.57,0,0,0-6.06-.05.5.5,0,0,1-.53-.84,6.57,6.57,0,0,1,7.14.05.5.5,0,0,1,.14.7A.49.49,0,0,1,17,11.3Z"/></svg>