<svg id="Layer_1" data-name="Layer 1" xmlns="http://www.w3.org/2000/svg" viewBox="0 0 27 27"><defs><style>.cls-1{fill:#44d62c;}</style></defs><title>razer-nari-Auto-Adjusting-Headband-icon</title><path class="cls-1" d="M4.82,24.36A14,14,0,0,1,.34,14.06,13.44,13.44,0,0,1,13.5.37,13.44,13.44,0,0,1,26.66,14.06,14,14,0,0,1,22.24,24.3l-.66-.78a12.89,12.89,0,0,0,4.09-9.46A12.43,12.43,0,0,0,13.5,1.41,12.43,12.43,0,0,0,1.33,14.06a12.89,12.89,0,0,0,4.15,9.52Z"/><path class="cls-1" d="M8.41,26.69a.41.41,0,0,1-.21-.05A13.45,13.45,0,0,1,.74,16.36.53.53,0,0,1,1,15.85,6.1,6.1,0,0,1,2.8,15a6.2,6.2,0,0,1,1.63-.22c3.55,0,6.48,5.72,6.48,6.74A6.89,6.89,0,0,1,10,24.9a7,7,0,0,1-1.3,1.66A.46.46,0,0,1,8.41,26.69ZM1.77,16.55a12.52,12.52,0,0,0,6.54,9,5.62,5.62,0,0,0,.87-1.18,5.87,5.87,0,0,0,.74-2.84c-.08-.7-2.59-5.71-5.49-5.71A5.15,5.15,0,0,0,3.05,16,5.49,5.49,0,0,0,1.77,16.55Z"/><path class="cls-1" d="M18.75,26.69a.46.46,0,0,1-.33-.13,6.77,6.77,0,0,1-1.3-1.66,6.89,6.89,0,0,1-.87-3.36c0-1,2.93-6.74,6.48-6.74a6.13,6.13,0,0,1,1.62.22,6,6,0,0,1,1.85.83.53.53,0,0,1,.22.51A13.49,13.49,0,0,1,19,26.64.41.41,0,0,1,18.75,26.69Zm4-10.86c-2.9,0-5.41,5-5.49,5.72A5.86,5.86,0,0,0,18,24.38a6,6,0,0,0,.86,1.18,12.47,12.47,0,0,0,6.54-9A5.42,5.42,0,0,0,24.11,16,5.21,5.21,0,0,0,22.73,15.83Z"/><path class="cls-1" d="M6.36,6.59l-.71-.72a10.67,10.67,0,0,1,15.59-.09l-.7.73a9.7,9.7,0,0,0-14.18.08Z"/><path class="cls-1" d="M9.55,23.74C5.87,17.2,2.8,16,2.77,16l.32-1c.14.05,3.42,1.27,7.32,8.2Z"/><path class="cls-1" d="M17.65,23.74l-.85-.52c3.89-6.93,7.18-8.15,7.32-8.2l.32,1-.16-.49.16.49S21.33,17.2,17.65,23.74Z"/></svg>