<svg id="Layer_1" data-name="Layer 1" xmlns="http://www.w3.org/2000/svg" viewBox="0 0 27 27"><defs><style>.cls-1{fill:#44d62c;}</style></defs><title>razer-nari-Game-Chat-Balance-icon</title><path class="cls-1" d="M13.5,26.63A13.13,13.13,0,1,1,26.63,13.5,13.14,13.14,0,0,1,13.5,26.63Zm0-25.27A12.14,12.14,0,1,0,25.64,13.5,12.16,12.16,0,0,0,13.5,1.36Z"/><rect class="cls-1" x="18.33" y="2.15" width="0.99" height="22.82"/><rect class="cls-1" x="7.66" y="2.15" width="0.99" height="23.03"/><path class="cls-1" d="M15.09,9.83H11.91a.5.5,0,1,1,0-1h3.18a.5.5,0,1,1,0,1Z"/><path class="cls-1" d="M13.5,11.42a.5.5,0,0,1-.5-.49V7.75a.5.5,0,0,1,1,0v3.18A.5.5,0,0,1,13.5,11.42Z"/><path class="cls-1" d="M15.09,18.25H11.91a.5.5,0,1,1,0-1h3.18a.5.5,0,1,1,0,1Z"/><path class="cls-1" d="M19.07,18.44c.49,0,.89.54.89,1.21s-.4,1.21-.89,1.21"/><rect class="cls-1" x="19.13" y="6.64" width="0.72" height="3.2" rx="0.36" ry="0.36"/></svg>